<svg style="position: absolute; width: 0; height: 0; overflow: hidden;" aria-hidden="true" version="1.1" xmlns="http://www.w3.org/2000/svg" xmlns:xlink="http://www.w3.org/1999/xlink">
    <defs>
        <symbol id="arrow" viewBox="0 0 20 20" fill="none">
            <path stroke-width="2" stroke="#fafafa" d="M15 12.5l-5-5-5 5" />
        </symbol>
        <symbol id="hourglass" viewBox="0 0 24 24" fill="none">
            <path stroke-width="2" stroke="#fafafa" stroke-linecap="round" stroke-linejoin="round" d="M18.1626 2H5.8374C5.3749 2 5 2.3749 5 2.8374c0 2.6653 1.0588 5.2214 2.9434 7.106l1.2192 1.2192c0.121 0.121 0.1816 0.1816 0.2249 0.2397 0.2644 0.3546 0.2644 0.8408 0 1.1954-0.0433 0.0581-0.1039 0.1187-0.2249 0.2397l-1.2192 1.2192C6.0588 15.9412 5 18.4973 5 21.1626 5 21.6251 5.3749 22 5.8374 22h12.3252C18.6251 22 19 21.6251 19 21.1626c0-2.6653-1.0588-5.2214-2.9434-7.106l-1.2192-1.2192c-0.121-0.121-0.1816-0.1816-0.2249-0.2397-0.2644-0.3546-0.2644-0.8408 0-1.1954 0.0433-0.0581 0.1039-0.1187 0.2249-0.2397l1.2192-1.2192C17.9412 8.0588 19 5.5027 19 2.8374 19 2.3749 18.6251 2 18.1626 2z" />
        </symbol>
        <symbol id="brush" viewBox="0 0 24 24" stroke-width="2" stroke="#fafafa" stroke-linecap="round" stroke-linejoin="round" fill="none">
            <path d="M12.7778 14.9999 9 11.2222" />
            <path d="M2 21.9999c2 0 4.608 0.3417 5.9749-1.0251 1.3668-1.3668 1.3668-3.5829 0-4.9497-1.3669-1.3669-3.583-1.3669-4.9498 0-1.3668 1.3668 0 3.9748-1.0251 5.9748z" />
            <path d="M8 15.9999c-0.4915-0.4914-0.7372-0.7371-0.8761-0.9944-0.3331-0.617-0.3188-1.3634 0.0378-1.9672 0.1487-0.2518 0.4037-0.4879 0.9136-0.96l9.8681-9.1371c0.8692-0.8048 2.219-0.7789 3.0565 0.0587 0.8376 0.8376 0.8636 2.1874 0.0588 3.0566l-9.1371 9.868c-0.4722 0.51-0.7082 0.7649-0.96 0.9136-0.6038 0.3566-1.3502 0.371-1.9672 0.0379C8.7371 16.737 8.4914 16.4913 8 15.9999z" />
        </symbol>
        <symbol id="arrow-narrow" viewBox="0 0 32 32" stroke-width="2" stroke="" stroke-linecap="round" stroke-linejoin="round" fill="none">
            <path d="M5.3335 16h21.3333" />
            <path d="M18.6665 8l8 8-8 8" />
        </symbol>
        <symbol id="x" viewBox="0 0 28 28" stroke-width="2" stroke="#fafafa" stroke-linecap="round" stroke-linejoin="round" fill="none">
            <path d="M21 7 7 21" />
            <path d="M7 7 21 21" />
        </symbol>
        <symbol id="user" viewBox="0 0 24 24" stroke-width="2" stroke="#fafafa" stroke-linecap="round" stroke-linejoin="round" fill="none">
            <path d="M20 21c0-1.3956 0-2.0933-0.1722-2.6611-0.3878-1.2784-1.3883-2.2789-2.6667-2.6667C16.5933 15.5 15.8956 15.5 14.5 15.5h-5c-1.3956 0-2.0933 0-2.6611 0.1722C5.5605 16.06 4.56 17.0605 4.1722 18.3389 4 18.9067 4 19.6044 4 21" />
            <path d="M12 12c2.4853 0 4.5-2.0147 4.5-4.5S14.4853 3 12 3C9.5147 3 7.5 5.0147 7.5 7.5S9.5147 12 12 12z" />
        </symbol>
        <symbol id="message-chat" viewBox="0 0 24 24" fill="none">
            <path stroke-width="2" stroke="#fafafa" stroke-linecap="round" stroke-linejoin="round" d="M6.0944 11.2288C6.0322 10.8282 6 10.4179 6 10c0-4.4183 3.6053-8 8.0526-8 4.4473 0 8.0526 3.5817 8.0526 8 0 0.9981-0.1839 1.9535-0.52 2.8345-0.0698 0.183-0.1048 0.2745-0.1206 0.3459-0.0157 0.0708-0.0218 0.1206-0.0235 0.1931-17e-4 0.0731 82e-4 0.1537 0.0281 0.3148l0.4025 3.2702c0.0436 0.354 0.0654 0.531 65e-4 0.6597-0.0516 0.1128-0.1432 0.2023-0.2571 0.2513-0.13 0.0559-0.3065 0.03-0.6594-0.0217l-3.1852-0.4669c-0.1664-0.0244-0.2495-0.0366-0.3253-0.0361-0.0749 4e-4-0.1267 59e-4-0.2001 0.0213-0.0741 0.0156-0.1688 0.0511-0.3581 0.122C16.0097 17.819 15.0524 18 14.0526 18c-0.4182 0-0.8289-0.0317-1.2299-0.0927M7.6316 22C10.5965 22 13 19.5376 13 16.5S10.5965 11 7.6316 11c-2.9649 0-5.3684 2.4624-5.3684 5.5 0 0.6106 0.0971 1.1979 0.2763 1.7467 0.0758 0.232 0.1137 0.348 0.1262 0.4272 0.0129 0.0828 0.0152 0.1292 0.0104 0.2128-47e-4 0.0801-0.0247 0.1706-0.0648 0.3516L2 22l2.9948-0.409c0.1635-0.0223 0.2452-0.0335 0.3166-0.033 0.0751 5e-4 0.115 46e-4 0.1887 0.0193 0.07 0.0139 0.1741 0.0506 0.3822 0.1241C6.4306 21.8949 7.0191 22 7.6316 22z" />
        </symbol>
        <symbol id="menu" viewBox="0 0 28 28" fill="none">
            <path stroke-width="2" stroke="#fafafa" stroke-linecap="round" stroke-linejoin="round" d="M3.5 9.9167l21 0M3.5 18.0833h21" />
        </symbol>
    </defs>
</svg>